<mxfile host="app.diagrams.net" modified="2021-12-22T10:55:08.978Z" agent="5.0 (X11)" etag="tNEicpciz_vmwj-9L_bW" version="16.0.2" type="github" pages="3">
  <diagram id="fC8_fh6CL08jGQa9Ovds" name="class">
    <mxGraphModel dx="540" dy="306" grid="1" gridSize="10" guides="1" tooltips="1" connect="1" arrows="1" fold="1" page="1" pageScale="1" pageWidth="850" pageHeight="1100" math="0" shadow="0">
      <root>
        <mxCell id="0" />
        <mxCell id="1" parent="0" />
        <mxCell id="EYafsLfPvgRABEpU0m5L-1" value="CFailureDetector" style="swimlane;fontStyle=1;align=center;verticalAlign=top;childLayout=stackLayout;horizontal=1;startSize=26;horizontalStack=0;resizeParent=1;resizeParentMax=0;resizeLast=0;collapsible=1;marginBottom=0;fillColor=#FAE5C7;strokeColor=#0F8B8D;fontColor=#143642;" vertex="1" parent="1">
          <mxGeometry x="305" y="160" width="240" height="140" as="geometry" />
        </mxCell>
        <mxCell id="EYafsLfPvgRABEpU0m5L-2" value="- isr: void*&#xa;&#xa;&#xa;" style="text;strokeColor=none;fillColor=none;align=left;verticalAlign=top;spacingLeft=4;spacingRight=4;overflow=hidden;rotatable=0;points=[[0,0.5],[1,0.5]];portConstraint=eastwest;fontColor=#143642;fontStyle=0" vertex="1" parent="EYafsLfPvgRABEpU0m5L-1">
          <mxGeometry y="26" width="240" height="24" as="geometry" />
        </mxCell>
        <mxCell id="EYafsLfPvgRABEpU0m5L-3" value="" style="line;strokeWidth=1;fillColor=none;align=left;verticalAlign=middle;spacingTop=-1;spacingLeft=3;spacingRight=3;rotatable=0;labelPosition=right;points=[];portConstraint=eastwest;labelBackgroundColor=#DAD2D8;strokeColor=#0F8B8D;fontColor=#143642;" vertex="1" parent="EYafsLfPvgRABEpU0m5L-1">
          <mxGeometry y="50" width="240" height="8" as="geometry" />
        </mxCell>
        <mxCell id="EYafsLfPvgRABEpU0m5L-4" value="+ CFailureDetector(IN void *lampfISR(void))&#xa;+ ~CFailureDetector(void)&#xa;&#xa;+ enable(void) void&#xa;+ disable(void) void&#xa;&#xa; " style="text;strokeColor=none;fillColor=none;align=left;verticalAlign=top;spacingLeft=4;spacingRight=4;overflow=hidden;rotatable=0;points=[[0,0.5],[1,0.5]];portConstraint=eastwest;fontColor=#143642;spacing=2;fontStyle=0" vertex="1" parent="EYafsLfPvgRABEpU0m5L-1">
          <mxGeometry y="58" width="240" height="82" as="geometry" />
        </mxCell>
      </root>
    </mxGraphModel>
  </diagram>
  <diagram id="im04DRlxOWYEGzVTzeCW" name="constructor">
    <mxGraphModel dx="643" dy="364" grid="1" gridSize="10" guides="1" tooltips="1" connect="1" arrows="1" fold="1" page="1" pageScale="1" pageWidth="850" pageHeight="1100" math="0" shadow="0">
      <root>
        <mxCell id="beF7PqxcQYPw9Txrw2hL-0" />
        <mxCell id="beF7PqxcQYPw9Txrw2hL-1" parent="beF7PqxcQYPw9Txrw2hL-0" />
        <mxCell id="DpSiHCCX4nZmPjKJtMxR-4" value="&lt;b&gt;Disable ISR&lt;/b&gt;" style="rounded=0;whiteSpace=wrap;html=1;sketch=0;fontColor=#143642;strokeColor=#0F8B8D;fillColor=#FAE5C7;" vertex="1" parent="beF7PqxcQYPw9Txrw2hL-1">
          <mxGeometry x="530" y="120" width="150" height="30" as="geometry" />
        </mxCell>
        <mxCell id="beF7PqxcQYPw9Txrw2hL-2" style="edgeStyle=orthogonalEdgeStyle;curved=0;rounded=1;sketch=0;orthogonalLoop=1;jettySize=auto;html=1;exitX=0.5;exitY=1;exitDx=0;exitDy=0;entryX=0.5;entryY=0;entryDx=0;entryDy=0;fontColor=#143642;strokeColor=#A8201A;fillColor=#FAE5C7;" edge="1" parent="beF7PqxcQYPw9Txrw2hL-1" source="beF7PqxcQYPw9Txrw2hL-3">
          <mxGeometry relative="1" as="geometry">
            <mxPoint x="435.26" y="119.99999999999989" as="targetPoint" />
          </mxGeometry>
        </mxCell>
        <mxCell id="beF7PqxcQYPw9Txrw2hL-3" value="&lt;div&gt;CFailureDetector&lt;/div&gt;&lt;div&gt;&lt;br&gt;&lt;/div&gt;&lt;div&gt;IN: *&lt;i&gt;&lt;span style=&quot;font-weight: normal&quot;&gt;lampfISR()&lt;/span&gt;&lt;/i&gt; &lt;/div&gt;" style="ellipse;whiteSpace=wrap;html=1;fillColor=#FAE5C7;strokeColor=#0F8B8D;fontColor=#143642;fontStyle=1" vertex="1" parent="beF7PqxcQYPw9Txrw2hL-1">
          <mxGeometry x="360.26" y="30" width="150" height="60" as="geometry" />
        </mxCell>
        <mxCell id="beF7PqxcQYPw9Txrw2hL-6" style="edgeStyle=orthogonalEdgeStyle;curved=0;rounded=1;sketch=0;orthogonalLoop=1;jettySize=auto;html=1;exitX=0.5;exitY=1;exitDx=0;exitDy=0;entryX=0.5;entryY=0;entryDx=0;entryDy=0;fontColor=#143642;strokeColor=#A8201A;fillColor=#FAE5C7;" edge="1" parent="beF7PqxcQYPw9Txrw2hL-1" source="beF7PqxcQYPw9Txrw2hL-8" target="beF7PqxcQYPw9Txrw2hL-7">
          <mxGeometry relative="1" as="geometry">
            <mxPoint x="434.76" y="170" as="sourcePoint" />
          </mxGeometry>
        </mxCell>
        <mxCell id="beF7PqxcQYPw9Txrw2hL-7" value="End" style="ellipse;whiteSpace=wrap;html=1;fillColor=#FAE5C7;strokeColor=#0F8B8D;fontColor=#143642;fontStyle=1" vertex="1" parent="beF7PqxcQYPw9Txrw2hL-1">
          <mxGeometry x="406.14" y="220" width="58.25" height="40" as="geometry" />
        </mxCell>
        <mxCell id="beF7PqxcQYPw9Txrw2hL-8" value="&lt;b&gt;Set ISR&lt;/b&gt; to *&lt;i&gt;lampfISR()&lt;/i&gt;" style="rounded=0;whiteSpace=wrap;html=1;sketch=0;fontColor=#143642;strokeColor=#0F8B8D;fillColor=#FAE5C7;" vertex="1" parent="beF7PqxcQYPw9Txrw2hL-1">
          <mxGeometry x="360.26" y="170" width="150" height="30" as="geometry" />
        </mxCell>
        <mxCell id="beF7PqxcQYPw9Txrw2hL-9" value="function that will implement the &lt;b&gt;Failure Detector ISR&lt;/b&gt;" style="shape=note;whiteSpace=wrap;html=1;backgroundOutline=1;darkOpacity=0.05;rounded=0;sketch=0;fontColor=#143642;strokeColor=#0F8B8D;fillColor=#FAE5C7;size=9;fontSize=10;align=center;horizontal=1;verticalAlign=middle;" vertex="1" parent="beF7PqxcQYPw9Txrw2hL-1">
          <mxGeometry x="190" y="80" width="110" height="50" as="geometry" />
        </mxCell>
        <mxCell id="beF7PqxcQYPw9Txrw2hL-10" value="" style="endArrow=none;dashed=1;html=1;rounded=1;sketch=0;fontColor=#143642;strokeColor=#A8201A;fillColor=#FAE5C7;curved=0;exitX=0;exitY=0;exitDx=110;exitDy=29.5;exitPerimeter=0;entryX=0;entryY=1;entryDx=0;entryDy=0;" edge="1" parent="beF7PqxcQYPw9Txrw2hL-1" source="beF7PqxcQYPw9Txrw2hL-9" target="beF7PqxcQYPw9Txrw2hL-3">
          <mxGeometry width="50" height="50" relative="1" as="geometry">
            <mxPoint x="310.19" y="89.99999999999989" as="sourcePoint" />
            <mxPoint x="330.18999999999994" y="120" as="targetPoint" />
          </mxGeometry>
        </mxCell>
        <mxCell id="DpSiHCCX4nZmPjKJtMxR-0" style="edgeStyle=orthogonalEdgeStyle;curved=0;rounded=1;sketch=0;orthogonalLoop=1;jettySize=auto;html=1;exitX=0.5;exitY=1;exitDx=0;exitDy=0;entryX=0.5;entryY=0;entryDx=0;entryDy=0;fontColor=#143642;strokeColor=#A8201A;fillColor=#FAE5C7;" edge="1" parent="beF7PqxcQYPw9Txrw2hL-1" source="DpSiHCCX4nZmPjKJtMxR-1">
          <mxGeometry relative="1" as="geometry">
            <mxPoint x="605" y="119.99999999999989" as="targetPoint" />
          </mxGeometry>
        </mxCell>
        <mxCell id="DpSiHCCX4nZmPjKJtMxR-1" value="&lt;div&gt;~CFailureDetector&lt;/div&gt;" style="ellipse;whiteSpace=wrap;html=1;fillColor=#FAE5C7;strokeColor=#0F8B8D;fontColor=#143642;fontStyle=1" vertex="1" parent="beF7PqxcQYPw9Txrw2hL-1">
          <mxGeometry x="530" y="30" width="150" height="60" as="geometry" />
        </mxCell>
        <mxCell id="DpSiHCCX4nZmPjKJtMxR-2" style="edgeStyle=orthogonalEdgeStyle;curved=0;rounded=1;sketch=0;orthogonalLoop=1;jettySize=auto;html=1;exitX=0.5;exitY=1;exitDx=0;exitDy=0;entryX=0.5;entryY=0;entryDx=0;entryDy=0;fontColor=#143642;strokeColor=#A8201A;fillColor=#FAE5C7;" edge="1" parent="beF7PqxcQYPw9Txrw2hL-1" source="DpSiHCCX4nZmPjKJtMxR-4" target="DpSiHCCX4nZmPjKJtMxR-3">
          <mxGeometry relative="1" as="geometry">
            <mxPoint x="604.5" y="170" as="sourcePoint" />
          </mxGeometry>
        </mxCell>
        <mxCell id="DpSiHCCX4nZmPjKJtMxR-3" value="End" style="ellipse;whiteSpace=wrap;html=1;fillColor=#FAE5C7;strokeColor=#0F8B8D;fontColor=#143642;fontStyle=1" vertex="1" parent="beF7PqxcQYPw9Txrw2hL-1">
          <mxGeometry x="575.88" y="180" width="58.25" height="40" as="geometry" />
        </mxCell>
        <mxCell id="DpSiHCCX4nZmPjKJtMxR-6" style="edgeStyle=orthogonalEdgeStyle;rounded=0;orthogonalLoop=1;jettySize=auto;html=1;exitX=0.5;exitY=1;exitDx=0;exitDy=0;entryX=0.5;entryY=0;entryDx=0;entryDy=0;strokeColor=#A8201A;" edge="1" parent="beF7PqxcQYPw9Txrw2hL-1" source="DpSiHCCX4nZmPjKJtMxR-5" target="beF7PqxcQYPw9Txrw2hL-8">
          <mxGeometry relative="1" as="geometry" />
        </mxCell>
        <mxCell id="DpSiHCCX4nZmPjKJtMxR-5" value="&lt;i&gt;isr&lt;/i&gt; &amp;lt;- &lt;i&gt;pirISR&lt;/i&gt;()" style="rounded=0;whiteSpace=wrap;html=1;sketch=0;fontColor=#143642;strokeColor=#0F8B8D;fillColor=#FAE5C7;" vertex="1" parent="beF7PqxcQYPw9Txrw2hL-1">
          <mxGeometry x="360.26" y="120" width="150" height="30" as="geometry" />
        </mxCell>
      </root>
    </mxGraphModel>
  </diagram>
  <diagram id="tD_O-jAUMQ3tm1yHIUln" name="enable">
    <mxGraphModel dx="540" dy="306" grid="1" gridSize="10" guides="1" tooltips="1" connect="1" arrows="1" fold="1" page="1" pageScale="1" pageWidth="850" pageHeight="1100" math="0" shadow="0">
      <root>
        <mxCell id="4UvTPopbReiQ7cL4zhvt-0" />
        <mxCell id="4UvTPopbReiQ7cL4zhvt-1" parent="4UvTPopbReiQ7cL4zhvt-0" />
        <mxCell id="k1YiH06Aokd3fy0wj2tn-10" style="edgeStyle=orthogonalEdgeStyle;curved=0;rounded=1;sketch=0;orthogonalLoop=1;jettySize=auto;html=1;exitX=0.5;exitY=1;exitDx=0;exitDy=0;entryX=0.5;entryY=0;entryDx=0;entryDy=0;fontColor=#143642;strokeColor=#A8201A;fillColor=#FAE5C7;" edge="1" parent="4UvTPopbReiQ7cL4zhvt-1" source="k1YiH06Aokd3fy0wj2tn-11">
          <mxGeometry relative="1" as="geometry">
            <mxPoint x="350" y="129.9999999999999" as="targetPoint" />
          </mxGeometry>
        </mxCell>
        <mxCell id="k1YiH06Aokd3fy0wj2tn-11" value="&lt;div&gt;Enable&lt;/div&gt;" style="ellipse;whiteSpace=wrap;html=1;fillColor=#FAE5C7;strokeColor=#0F8B8D;fontColor=#143642;fontStyle=1" vertex="1" parent="4UvTPopbReiQ7cL4zhvt-1">
          <mxGeometry x="310" y="70" width="80" height="40" as="geometry" />
        </mxCell>
        <mxCell id="k1YiH06Aokd3fy0wj2tn-12" style="edgeStyle=orthogonalEdgeStyle;curved=0;rounded=1;sketch=0;orthogonalLoop=1;jettySize=auto;html=1;exitX=0.5;exitY=1;exitDx=0;exitDy=0;entryX=0.5;entryY=0;entryDx=0;entryDy=0;fontColor=#143642;strokeColor=#A8201A;fillColor=#FAE5C7;" edge="1" parent="4UvTPopbReiQ7cL4zhvt-1" source="k1YiH06Aokd3fy0wj2tn-14" target="k1YiH06Aokd3fy0wj2tn-13">
          <mxGeometry relative="1" as="geometry">
            <mxPoint x="349.5" y="180" as="sourcePoint" />
          </mxGeometry>
        </mxCell>
        <mxCell id="k1YiH06Aokd3fy0wj2tn-13" value="End" style="ellipse;whiteSpace=wrap;html=1;fillColor=#FAE5C7;strokeColor=#0F8B8D;fontColor=#143642;fontStyle=1" vertex="1" parent="4UvTPopbReiQ7cL4zhvt-1">
          <mxGeometry x="330.44" y="180" width="39.12" height="30" as="geometry" />
        </mxCell>
        <mxCell id="k1YiH06Aokd3fy0wj2tn-14" value="&lt;b&gt;Enable ISR&lt;/b&gt; &lt;i&gt;isr&lt;/i&gt;" style="rounded=0;whiteSpace=wrap;html=1;sketch=0;fontColor=#143642;strokeColor=#0F8B8D;fillColor=#FAE5C7;" vertex="1" parent="4UvTPopbReiQ7cL4zhvt-1">
          <mxGeometry x="275" y="130" width="150" height="30" as="geometry" />
        </mxCell>
        <mxCell id="k1YiH06Aokd3fy0wj2tn-15" style="edgeStyle=orthogonalEdgeStyle;curved=0;rounded=1;sketch=0;orthogonalLoop=1;jettySize=auto;html=1;exitX=0.5;exitY=1;exitDx=0;exitDy=0;entryX=0.5;entryY=0;entryDx=0;entryDy=0;fontColor=#143642;strokeColor=#A8201A;fillColor=#FAE5C7;" edge="1" parent="4UvTPopbReiQ7cL4zhvt-1" source="k1YiH06Aokd3fy0wj2tn-16">
          <mxGeometry relative="1" as="geometry">
            <mxPoint x="525" y="129.9999999999999" as="targetPoint" />
          </mxGeometry>
        </mxCell>
        <mxCell id="k1YiH06Aokd3fy0wj2tn-16" value="Disable" style="ellipse;whiteSpace=wrap;html=1;fillColor=#FAE5C7;strokeColor=#0F8B8D;fontColor=#143642;fontStyle=1" vertex="1" parent="4UvTPopbReiQ7cL4zhvt-1">
          <mxGeometry x="485" y="70" width="80" height="40" as="geometry" />
        </mxCell>
        <mxCell id="k1YiH06Aokd3fy0wj2tn-17" style="edgeStyle=orthogonalEdgeStyle;curved=0;rounded=1;sketch=0;orthogonalLoop=1;jettySize=auto;html=1;exitX=0.5;exitY=1;exitDx=0;exitDy=0;entryX=0.5;entryY=0;entryDx=0;entryDy=0;fontColor=#143642;strokeColor=#A8201A;fillColor=#FAE5C7;" edge="1" parent="4UvTPopbReiQ7cL4zhvt-1" source="k1YiH06Aokd3fy0wj2tn-19" target="k1YiH06Aokd3fy0wj2tn-18">
          <mxGeometry relative="1" as="geometry">
            <mxPoint x="524.5" y="180" as="sourcePoint" />
          </mxGeometry>
        </mxCell>
        <mxCell id="k1YiH06Aokd3fy0wj2tn-18" value="End" style="ellipse;whiteSpace=wrap;html=1;fillColor=#FAE5C7;strokeColor=#0F8B8D;fontColor=#143642;fontStyle=1" vertex="1" parent="4UvTPopbReiQ7cL4zhvt-1">
          <mxGeometry x="505.44" y="180" width="39.12" height="30" as="geometry" />
        </mxCell>
        <mxCell id="k1YiH06Aokd3fy0wj2tn-19" value="&lt;b&gt;Enable ISR &lt;/b&gt;&lt;i&gt;isr&lt;/i&gt;&lt;b&gt;&lt;br&gt;&lt;/b&gt;" style="rounded=0;whiteSpace=wrap;html=1;sketch=0;fontColor=#143642;strokeColor=#0F8B8D;fillColor=#FAE5C7;" vertex="1" parent="4UvTPopbReiQ7cL4zhvt-1">
          <mxGeometry x="450" y="130" width="150" height="30" as="geometry" />
        </mxCell>
      </root>
    </mxGraphModel>
  </diagram>
</mxfile>
